<?xml version="1.0" encoding="utf-8"?>
<!-- Generator: Adobe Illustrator 27.9.0, SVG Export Plug-In . SVG Version: 6.00 Build 0)  -->
<svg version="1.1" xmlns="http://www.w3.org/2000/svg" xmlns:xlink="http://www.w3.org/1999/xlink" x="0px" y="0px"
	 viewBox="0 0 1920 1080" style="enable-background:new 0 0 1920 1080;" xml:space="preserve">
<style type="text/css">
	.st0{fill:none;stroke:#5F0005;stroke-width:6;stroke-miterlimit:10;}
	.st1{fill:#FFFFFF;}
	.st2{fill:#5F0002;}
	.st3{fill:none;stroke:#5F0005;stroke-width:5.6116;stroke-miterlimit:10;}
</style>
<g id="Layer_2">
</g>
<g id="Layer_1">
	<g id="Layer_2_00000023248140967556182670000013457325453869759885_">
		<line class="st0" x1="7.3" y1="619.1" x2="1579" y2="619.1"/>
		<circle class="st1" cx="296" cy="620.2" r="6.9"/>
		<circle class="st1" cx="339.6" cy="620.2" r="8.1"/>
		<circle class="st1" cx="382.5" cy="619.1" r="9"/>
		<circle class="st1" cx="431.1" cy="619.1" r="9.3"/>
		<circle class="st1" cx="475.4" cy="619.1" r="10.5"/>
		<circle class="st1" cx="522.9" cy="619.1" r="10.5"/>
		<circle class="st1" cx="578.4" cy="619.1" r="10.5"/>
		<circle class="st1" cx="624.1" cy="619.1" r="10.5"/>
		<circle class="st1" cx="678.2" cy="619.1" r="12.6"/>
		<circle class="st1" cx="736.3" cy="619.1" r="12.6"/>
		<circle class="st1" cx="804.7" cy="619.1" r="15"/>
		<circle class="st1" cx="877.1" cy="619.1" r="15"/>
		<circle class="st1" cx="962.8" cy="619.1" r="17.8"/>
		<path class="st1" d="M1510,620.2c0,5.1-4.1,9.3-9.3,9.3s-9.3-4.1-9.3-9.3c0-5.1,4.1-9.3,9.3-9.3S1510,615.1,1510,620.2z"/>
		<path class="st1" d="M1465,620.2c0,5.8-4.7,10.5-10.5,10.5s-10.5-4.7-10.5-10.5s4.7-10.5,10.5-10.5S1465,614.4,1465,620.2z"/>
		<circle class="st1" cx="1406.5" cy="620.2" r="10.5"/>
		<circle class="st1" cx="1354.7" cy="620.2" r="10.5"/>
		<path class="st1" d="M1313.9,620.2c0,5.8-4.7,10.5-10.5,10.5s-10.5-4.7-10.5-10.5s4.7-10.5,10.5-10.5S1313.9,614.4,1313.9,620.2z"
			/>
		<circle class="st1" cx="1249.3" cy="620.2" r="12.6"/>
		<circle class="st1" cx="1191.2" cy="620.2" r="12.6"/>
		<circle class="st1" cx="1122.9" cy="620.2" r="15"/>
		<circle class="st1" cx="1050.5" cy="620.2" r="15"/>
		<circle class="st1" cx="1545.9" cy="619.1" r="6.9"/>
	</g>
	<g id="Layer_1_00000163772399976121375430000004191280587312035736_">
		<g>
			<path class="st1" d="M197.4,549.8V382.5h31.2l57.6,102.4V382.5h31.2v167.3h-31.2l-57.6-102.4v102.4H197.4z"/>
			<path class="st1" d="M404.1,382.5v99.1c0,7,0.2,17.8,6.1,25.8c3.6,4.8,9.4,8,14.8,8s11-3,14.4-7.3c7.2-8.8,7-21.1,7-30.4v-95.3
				h31.2v96.1c0,17.6-0.5,35.9-13.5,54.2c-10.1,14.3-22.7,20.8-39.7,20.8c-19,0-32.5-9-39.9-20.1c-10.5-15.8-11.7-37.1-11.7-54.9
				v-96.1L404.1,382.5L404.1,382.5z"/>
			<path class="st1" d="M564.3,382.5V513h37.5v36.9H533V382.5H564.3z"/>
			<path class="st1" d="M679.3,382.5V513h37.5v36.9H648V382.5H679.3z"/>
			<path class="st1" d="M763.1,549.8V382.5h46.6c8.7,0,19,1.8,26.4,13c4.2,6.3,7.4,16.6,7.4,31.4c0,7.3-0.9,13.5-3.4,20.6
				c-2.5,6.5-5.2,10.3-9.7,13c6.3,1,12.6,5,16.4,10c4.9,6.5,8.1,17.3,8.1,30.6c0,15.8-4.3,26.6-8.8,32.9
				c-6.5,9.3-17.9,15.8-32.7,15.8H763.1z M794.3,448.4h5.8c3.2,0,8.7-0.5,11.9-5.3c2-2.8,2.9-7.3,2.9-11c0-4.3-1.1-8.5-2.9-11.3
				c-2-2.8-5.8-5-11.9-5h-5.8V448.4z M794.3,515.9h7c8.7,0,15.9-1.3,19.3-6.8c1.4-2.3,2.5-6,2.5-10.8c0-5.3-1.3-9.5-3.1-12
				c-3.8-5.3-11.6-5.5-19.3-5.5h-6.5L794.3,515.9L794.3,515.9z"/>
			<path class="st1" d="M1013.2,528.7c-12.3,16.3-29.6,24.8-47.5,24.8s-35.2-8.5-47.5-24.8c-12.8-17.1-19-40.4-19-62.5
				c0-22.3,6.1-45.9,19-62.7c12.3-16.3,29.6-24.8,47.5-24.8s35.2,8.5,47.5,24.8c12.8,16.8,19,40.4,19,62.7
				C1032.2,488.3,1026,511.7,1013.2,528.7z M941.4,434.1c-6.5,8.8-9.6,21.1-9.6,32.9c0,14.8,5.1,25.1,9.6,31.1
				c5.8,7.8,13.9,13.3,24.4,13.3c10.6,0,18.6-5.3,24.2-13c5.6-7.8,9.7-19.3,9.7-32.1c0-13-4.2-24.6-9.7-32.1
				c-6.7-8.8-15.9-13.3-24.2-13.3C957.1,420.8,947.9,425.1,941.4,434.1z"/>
			<path class="st1" d="M1113.4,382.5v99.1c0,7,0.2,17.8,6.1,25.8c3.6,4.8,9.4,8,14.8,8s11-3,14.4-7.3c7.2-8.8,7-21.1,7-30.4v-95.3
				h31.2v96.1c0,17.6-0.5,35.9-13.5,54.2c-10.1,14.3-22.7,20.8-39.7,20.8c-19,0-32.5-9-39.9-20.1c-10.5-15.8-11.7-37.1-11.7-54.9
				v-96.1L1113.4,382.5L1113.4,382.5z"/>
			<path class="st1" d="M1291.2,382.5c9,0,20.6,2,29.4,14.8c6.9,9.8,10.3,24.3,10.3,37.6c0,14.3-3.6,26.8-9.6,34.9
				c-4.7,6.3-11,10-16.6,11.5l37.7,68.5h-38.8l-30-64.2v64.2h-31.2V382.5H1291.2z M1273.7,457.5h6c4.7,0,11.4-1.8,15.2-6.8
				c2.3-3.3,4-8.8,4-14c0-5-1.4-10.5-4.2-14c-2.9-4-8.1-6.5-15-6.5h-6V457.5z"/>
			<path class="st1" d="M1385.8,549.8V382.5h31.2l57.6,102.4V382.5h31.2v167.3h-31.2L1417,447.4v102.4H1385.8z"/>
			<path class="st1" d="M1629.6,419.3h-37.2v27.8h35.2V484h-35.2v28.9h37.2v36.9h-68.4V382.5h68.4V419.3z"/>
		</g>
		<rect x="1577" y="618.2" class="st2" width="5" height="4"/>
		<polyline class="st3" points="1579,619.1 1588.9,581.2 1603.9,662.2 1624,592.9 1636.4,611 1643.9,488.6 1680.9,704.1 
			1697.8,618.1 1920,618.1 		"/>
	</g>
</g>
</svg>
