<?xml version="1.0" encoding="utf-8"?>
<!-- Generator: Adobe Illustrator 27.9.0, SVG Export Plug-In . SVG Version: 6.00 Build 0)  -->
<svg version="1.1" xmlns="http://www.w3.org/2000/svg" xmlns:xlink="http://www.w3.org/1999/xlink" x="0px" y="0px"
	 viewBox="0 0 740.2 612" style="enable-background:new 0 0 740.2 612;" xml:space="preserve">
<style type="text/css">
	.st0{fill:none;stroke:#5F0005;stroke-width:6.7552;stroke-miterlimit:10;}
	.st1{fill:#FFFFFF;}
	.st2{fill:#5F0002;}
	.st3{fill:none;stroke:#5F0005;stroke-width:6.3179;stroke-miterlimit:10;}
</style>
<g id="Layer_1">
</g>
<g id="Layer_2">
	<g id="Layer_2_00000098201445530309560830000018125860810234595731_">
		<line class="st0" x1="-48.4" y1="354.1" x2="688" y2="354.1"/>
		<circle class="st1" cx="86.9" cy="354.7" r="3.2"/>
		<circle class="st1" cx="107.3" cy="354.7" r="3.8"/>
		<circle class="st1" cx="127.4" cy="354.1" r="4.2"/>
		<circle class="st1" cx="150.2" cy="354.1" r="4.4"/>
		<circle class="st1" cx="170.9" cy="354.1" r="4.9"/>
		<circle class="st1" cx="193.2" cy="354.1" r="4.9"/>
		<circle class="st1" cx="219.2" cy="354.1" r="4.9"/>
		<circle class="st1" cx="240.6" cy="354.1" r="4.9"/>
		<circle class="st1" cx="265.9" cy="354.1" r="5.9"/>
		<circle class="st1" cx="293.2" cy="354.1" r="5.9"/>
		<circle class="st1" cx="325.2" cy="354.1" r="7"/>
		<circle class="st1" cx="359.1" cy="354.1" r="7"/>
		<circle class="st1" cx="399.3" cy="354.1" r="8.3"/>
		<circle class="st1" cx="672.1" cy="354.7" r="4.2"/>
		<path class="st1" d="M653.6,354.7c0,2.4-1.9,4.4-4.4,4.4c-2.4,0-4.4-1.9-4.4-4.4c0-2.4,1.9-4.4,4.4-4.4
			C651.7,350.3,653.6,352.3,653.6,354.7z"/>
		<path class="st1" d="M633.5,354.7c0,2.7-2.2,4.9-4.9,4.9c-2.7,0-4.9-2.2-4.9-4.9c0-2.7,2.2-4.9,4.9-4.9
			C631.3,349.7,633.5,351.9,633.5,354.7z"/>
		<circle class="st1" cx="606.3" cy="354.7" r="4.9"/>
		<circle class="st1" cx="580.3" cy="354.7" r="4.9"/>
		<path class="st1" d="M563.8,354.7c0,2.7-2.2,4.9-4.9,4.9c-2.7,0-4.9-2.2-4.9-4.9c0-2.7,2.2-4.9,4.9-4.9
			C561.6,349.7,563.8,351.9,563.8,354.7z"/>
		<circle class="st1" cx="533.5" cy="354.7" r="5.9"/>
		<circle class="st1" cx="506.3" cy="354.7" r="5.9"/>
		<circle class="st1" cx="474.3" cy="354.7" r="7"/>
		<circle class="st1" cx="440.4" cy="354.7" r="7"/>
	</g>
	<g id="Layer_1_00000059989504054072750630000009205156491118284174_">
		<g>
			<path class="st1" d="M36.6,319.2v-78.4h14.6l27,48v-48h14.6v78.4H78.2l-27-48v48H36.6z"/>
			<path class="st1" d="M133.4,240.8v46.4c0,3.3,0.1,8.3,2.9,12.1c1.7,2.2,4.4,3.7,6.9,3.7c2.5,0,5.2-1.4,6.7-3.4
				c3.4-4.1,3.3-9.9,3.3-14.2v-44.6h14.6v45c0,8.2-0.2,16.8-6.3,25.4c-4.7,6.7-10.6,9.7-18.6,9.7c-8.9,0-15.2-4.2-18.7-9.4
				c-4.9-7.4-5.5-17.4-5.5-25.7v-45L133.4,240.8L133.4,240.8z"/>
			<path class="st1" d="M208.4,240.8v61.1H226v17.3h-32.2v-78.4H208.4z"/>
			<path class="st1" d="M262.3,240.8v61.1h17.6v17.3h-32.2v-78.4H262.3z"/>
			<path class="st1" d="M301.6,319.2v-78.4h21.8c4.1,0,8.9,0.8,12.4,6.1c2,3,3.5,7.8,3.5,14.7c0,3.4-0.4,6.3-1.6,9.7
				c-1.2,3-2.4,4.8-4.5,6.1c3,0.5,5.9,2.3,7.7,4.7c2.3,3,3.8,8.1,3.8,14.3c0,7.4-2,12.5-4.1,15.4c-3,4.4-8.4,7.4-15.3,7.4H301.6z
				 M316.2,271.6h2.7c1.5,0,4.1-0.2,5.6-2.5c0.9-1.3,1.4-3.4,1.4-5.2c0-2-0.5-4-1.4-5.3c-0.9-1.3-2.7-2.3-5.6-2.3h-2.7V271.6z
				 M316.2,303.3h3.3c4.1,0,7.4-0.6,9-3.2c0.7-1.1,1.2-2.8,1.2-5.1c0-2.5-0.6-4.5-1.5-5.6c-1.8-2.5-5.4-2.6-9-2.6h-3L316.2,303.3
				L316.2,303.3z"/>
			<path class="st1" d="M418.8,309.3c-5.8,7.6-13.9,11.6-22.3,11.6s-16.5-4-22.3-11.6c-6-8-8.9-18.9-8.9-29.3
				c0-10.4,2.9-21.5,8.9-29.4c5.8-7.6,13.9-11.6,22.3-11.6s16.5,4,22.3,11.6c6,7.9,8.9,18.9,8.9,29.4
				C427.7,290.3,424.7,301.3,418.8,309.3z M385.1,264.9c-3,4.1-4.5,9.9-4.5,15.4c0,6.9,2.4,11.8,4.5,14.6c2.7,3.7,6.5,6.2,11.4,6.2
				c5,0,8.7-2.5,11.3-6.1c2.6-3.7,4.5-9,4.5-15c0-6.1-2-11.5-4.5-15c-3.1-4.1-7.4-6.2-11.3-6.2C392.5,258.7,388.2,260.7,385.1,264.9
				z"/>
			<path class="st1" d="M465.7,240.8v46.4c0,3.3,0.1,8.3,2.9,12.1c1.7,2.2,4.4,3.7,6.9,3.7s5.2-1.4,6.7-3.4
				c3.4-4.1,3.3-9.9,3.3-14.2v-44.6h14.6v45c0,8.2-0.2,16.8-6.3,25.4c-4.7,6.7-10.6,9.7-18.6,9.7c-8.9,0-15.2-4.2-18.7-9.4
				c-4.9-7.4-5.5-17.4-5.5-25.7v-45L465.7,240.8L465.7,240.8z"/>
			<path class="st1" d="M549,240.8c4.2,0,9.7,0.9,13.8,6.9c3.2,4.6,4.8,11.4,4.8,17.6c0,6.7-1.7,12.6-4.5,16.4
				c-2.2,3-5.2,4.7-7.8,5.4l17.7,32.1h-18.2l-14.1-30.1v30.1h-14.6v-78.4H549z M540.8,275.9h2.8c2.2,0,5.3-0.8,7.1-3.2
				c1.1-1.5,1.9-4.1,1.9-6.6c0-2.3-0.7-4.9-2-6.6c-1.4-1.9-3.8-3-7-3h-2.8V275.9z"/>
			<path class="st1" d="M593.3,319.2v-78.4h14.6l27,48v-48h14.6v78.4h-14.6l-27-48v48H593.3z"/>
			<path class="st1" d="M700.1,258h-17.4v13h16.5v17.3h-16.5v13.5h17.4v17.3h-32v-78.4h32V258z"/>
		</g>
		<rect x="684.1" y="355.2" class="st2" width="2.3" height="1.9"/>
		<polyline class="st3" points="685,355.6 689.7,337.9 696.7,375.8 706.1,343.4 711.9,351.9 715.4,294.5 732.8,395.5 740.7,355.2 		
			"/>
	</g>
</g>
</svg>
